<svg width="114" height="90" viewBox="0 0 114 90" fill="none" xmlns="http://www.w3.org/2000/svg">
<path d="M52.3724 87.9283C48.1702 82.9647 41.1557 77.6558 34.3623 74.2971C27.5028 70.9051 20.9874 69.0214 13.59 68.2929C12.1315 68.1506 10.9223 68.0178 10.9029 67.9988C10.8841 67.9988 10.9218 52.6792 10.9972 33.998L11.1217 0.0331982L12.4685 0.165991C20.7381 0.991208 29.968 4.13462 36.9516 8.51586C42.9701 12.291 49.1851 18.1206 53.1475 23.7065L54.1446 25.1122V57.3754C54.1446 75.1194 54.0692 89.6347 53.9787 89.6319C53.8844 89.629 53.1669 88.8636 52.3766 87.9302L52.3724 87.9283ZM59.2229 57.2938V24.8959L61.1486 22.3074C63.6073 19.0028 68.5528 14.0239 71.8229 11.5625C80.5645 4.98071 90.047 1.26154 100.933 0.142278L102.314 0V34.0122V68.0254L100.712 68.1772C85.5539 69.5962 72.4123 75.8877 62.1333 86.6459L59.2229 89.6926V57.2947V57.2938ZM68.6147 87.4901C74.5642 81.8748 82.4403 77.413 90.3519 75.1735C94.492 74.0021 99.876 73.1844 103.45 73.1844C105.324 73.1844 106.363 72.7766 106.949 71.8081C107.391 71.0778 107.395 70.7638 107.396 43.2034L107.397 15.3339L108.226 15.4856C108.681 15.5805 109.974 15.9409 111.099 16.3014L113.143 16.9558V51.7373C113.143 70.8672 113.067 86.5188 112.974 86.5188C112.88 86.5188 111.514 86.2248 109.935 85.8643C103.699 84.451 98.5632 83.9654 91.8182 84.1484C83.6368 84.3761 77.2784 85.5238 69.7199 88.1512L66.8471 89.15L68.615 87.4816L68.6147 87.4901ZM43.4226 88.0308C40.2837 86.9001 35.0996 85.5674 31.6 84.9926C26.8416 84.2148 23.5588 84.0081 17.7268 84.139C11.9322 84.2623 8.42718 84.6701 3.64575 85.7619C2.30878 86.0654 0.941445 86.3784 0.607201 86.4448L0 86.5776L0.00103743 51.7032L0.00216815 16.8278L2.59777 16.069C4.02525 15.6516 5.31763 15.2627 5.46953 15.2153C5.68921 15.1204 5.74578 20.8021 5.74578 43.0536C5.74578 73.4604 5.67978 71.7654 6.96943 72.6182C7.41823 72.9122 8.35071 73.045 11.0136 73.2062C21.5969 73.8133 31.6389 77.3883 39.837 83.4712C41.6049 84.783 45.8477 88.3855 46.0908 88.781C46.2605 89.0561 46.1474 89.0276 43.4233 88.0412L43.4226 88.0308Z" fill="black" fill-opacity="0.59"/>
<path d="M52.3724 87.9283C48.1702 82.9647 41.1557 77.6558 34.3623 74.2971C27.5028 70.9051 20.9874 69.0214 13.59 68.2929C12.1315 68.1506 10.9223 68.0178 10.9029 67.9988C10.8841 67.9988 10.9218 52.6792 10.9972 33.998L11.1217 0.0331982L12.4685 0.165991C20.7381 0.991208 29.968 4.13462 36.9516 8.51586C42.9701 12.291 49.1851 18.1206 53.1475 23.7065L54.1446 25.1122V57.3754C54.1446 75.1194 54.0692 89.6347 53.9787 89.6319C53.8844 89.629 53.1669 88.8636 52.3766 87.9302L52.3724 87.9283ZM59.2229 57.2938V24.8959L61.1486 22.3074C63.6073 19.0028 68.5528 14.0239 71.8229 11.5625C80.5645 4.98071 90.047 1.26154 100.933 0.142278L102.314 0V34.0122V68.0254L100.712 68.1772C85.5539 69.5962 72.4123 75.8877 62.1333 86.6459L59.2229 89.6926V57.2947V57.2938ZM68.6147 87.4901C74.5642 81.8748 82.4403 77.413 90.3519 75.1735C94.492 74.0021 99.876 73.1844 103.45 73.1844C105.324 73.1844 106.363 72.7766 106.949 71.8081C107.391 71.0778 107.395 70.7638 107.396 43.2034L107.397 15.3339L108.226 15.4856C108.681 15.5805 109.974 15.9409 111.099 16.3014L113.143 16.9558V51.7373C113.143 70.8672 113.067 86.5188 112.974 86.5188C112.88 86.5188 111.514 86.2248 109.935 85.8643C103.699 84.451 98.5632 83.9654 91.8182 84.1484C83.6368 84.3761 77.2784 85.5238 69.7199 88.1512L66.8471 89.15L68.615 87.4816L68.6147 87.4901ZM43.4226 88.0308C40.2837 86.9001 35.0996 85.5674 31.6 84.9926C26.8416 84.2148 23.5588 84.0081 17.7268 84.139C11.9322 84.2623 8.42718 84.6701 3.64575 85.7619C2.30878 86.0654 0.941445 86.3784 0.607201 86.4448L0 86.5776L0.00103743 51.7032L0.00216815 16.8278L2.59777 16.069C4.02525 15.6516 5.31763 15.2627 5.46953 15.2153C5.68921 15.1204 5.74578 20.8021 5.74578 43.0536C5.74578 73.4604 5.67978 71.7654 6.96943 72.6182C7.41823 72.9122 8.35071 73.045 11.0136 73.2062C21.5969 73.8133 31.6389 77.3883 39.837 83.4712C41.6049 84.783 45.8477 88.3855 46.0908 88.781C46.2605 89.0561 46.1474 89.0276 43.4233 88.0412L43.4226 88.0308Z" fill="black" fill-opacity="0.43"/>
<path d="M52.3724 87.9283C48.1702 82.9647 41.1557 77.6558 34.3623 74.2971C27.5028 70.9051 20.9874 69.0214 13.59 68.2929C12.1315 68.1506 10.9223 68.0178 10.9029 67.9988C10.8841 67.9988 10.9218 52.6792 10.9972 33.998L11.1217 0.0331982L12.4685 0.165991C20.7381 0.991208 29.968 4.13462 36.9516 8.51586C42.9701 12.291 49.1851 18.1206 53.1475 23.7065L54.1446 25.1122V57.3754C54.1446 75.1194 54.0692 89.6347 53.9787 89.6319C53.8844 89.629 53.1669 88.8636 52.3766 87.9302L52.3724 87.9283ZM59.2229 57.2938V24.8959L61.1486 22.3074C63.6073 19.0028 68.5528 14.0239 71.8229 11.5625C80.5645 4.98071 90.047 1.26154 100.933 0.142278L102.314 0V34.0122V68.0254L100.712 68.1772C85.5539 69.5962 72.4123 75.8877 62.1333 86.6459L59.2229 89.6926V57.2947V57.2938ZM68.6147 87.4901C74.5642 81.8748 82.4403 77.413 90.3519 75.1735C94.492 74.0021 99.876 73.1844 103.45 73.1844C105.324 73.1844 106.363 72.7766 106.949 71.8081C107.391 71.0778 107.395 70.7638 107.396 43.2034L107.397 15.3339L108.226 15.4856C108.681 15.5805 109.974 15.9409 111.099 16.3014L113.143 16.9558V51.7373C113.143 70.8672 113.067 86.5188 112.974 86.5188C112.88 86.5188 111.514 86.2248 109.935 85.8643C103.699 84.451 98.5632 83.9654 91.8182 84.1484C83.6368 84.3761 77.2784 85.5238 69.7199 88.1512L66.8471 89.15L68.615 87.4816L68.6147 87.4901ZM43.4226 88.0308C40.2837 86.9001 35.0996 85.5674 31.6 84.9926C26.8416 84.2148 23.5588 84.0081 17.7268 84.139C11.9322 84.2623 8.42718 84.6701 3.64575 85.7619C2.30878 86.0654 0.941445 86.3784 0.607201 86.4448L0 86.5776L0.00103743 51.7032L0.00216815 16.8278L2.59777 16.069C4.02525 15.6516 5.31763 15.2627 5.46953 15.2153C5.68921 15.1204 5.74578 20.8021 5.74578 43.0536C5.74578 73.4604 5.67978 71.7654 6.96943 72.6182C7.41823 72.9122 8.35071 73.045 11.0136 73.2062C21.5969 73.8133 31.6389 77.3883 39.837 83.4712C41.6049 84.783 45.8477 88.3855 46.0908 88.781C46.2605 89.0561 46.1474 89.0276 43.4233 88.0412L43.4226 88.0308Z" fill="black" fill-opacity="0.2"/>
<path d="M23.715 31.96V25.415H42.965V31.96H37.19V61H29.49V31.96H23.715ZM86.0988 41.53C88.4821 42.3733 89.6738 44.3167 89.6738 47.36V53.74C89.6738 58.58 87.4004 61 82.8538 61H68.7188V25.415H82.4138C86.9604 25.415 89.2338 27.835 89.2338 32.675V35.92C89.2338 38.8533 88.1888 40.7233 86.0988 41.53ZM80.4887 30.64H76.4188V40.155H80.4887C80.7821 40.155 81.0204 40.045 81.2038 39.825C81.4238 39.605 81.5338 39.3483 81.5338 39.055V31.74C81.5338 31.4467 81.4238 31.19 81.2038 30.97C81.0204 30.75 80.7821 30.64 80.4887 30.64ZM81.9738 54.62V46.645C81.9738 46.3517 81.8638 46.095 81.6438 45.875C81.4604 45.655 81.2221 45.545 80.9288 45.545H76.4188V55.72H80.9288C81.2221 55.72 81.4604 55.61 81.6438 55.39C81.8638 55.17 81.9738 54.9133 81.9738 54.62Z" fill="#E0E40E"/>
</svg>
