<svg width="500" height="500" viewBox="0 0 36 180" fill="none" xmlns="http://www.w3.org/2000/svg">
<path d="M30.3635 125.636C25.9392 125.636 21.9241 124.803 18.318 123.136C14.7119 121.439 11.8483 119 9.72709 115.818C7.60588 112.606 6.54527 108.727 6.54527 104.182C6.54527 100.182 7.33315 96.9394 8.90891 94.4545C10.4847 91.9394 12.5907 89.9697 15.2271 88.5455C17.8635 87.1212 20.7725 86.0606 23.9544 85.3636C27.1665 84.6364 30.3938 84.0606 33.6362 83.6364C37.8786 83.0909 41.318 82.6818 43.9544 82.4091C46.621 82.1061 48.5604 81.6061 49.7725 80.9091C51.015 80.2121 51.6362 79 51.6362 77.2727V76.9091C51.6362 72.4242 50.4089 68.9394 47.9544 66.4545C45.5301 63.9697 41.8483 62.7273 36.9089 62.7273C31.7877 62.7273 27.7725 63.8485 24.8635 66.0909C21.9544 68.3333 19.9089 70.7273 18.7271 73.2727L8.54527 69.6364C10.3635 65.3939 12.7877 62.0909 15.818 59.7273C18.8786 57.3333 22.2119 55.6667 25.818 54.7273C29.4544 53.7576 33.0301 53.2727 36.5453 53.2727C38.7877 53.2727 41.3635 53.5455 44.2725 54.0909C47.2119 54.6061 50.0453 55.6818 52.7725 57.3182C55.5301 58.9545 57.818 61.4242 59.6362 64.7273C61.4544 68.0303 62.3635 72.4545 62.3635 78V124H51.6362V114.545H51.0907C50.3635 116.061 49.1513 117.682 47.4544 119.409C45.7574 121.136 43.4998 122.606 40.6816 123.818C37.8635 125.03 34.4241 125.636 30.3635 125.636ZM31.9998 116C36.2422 116 39.818 115.167 42.7271 113.5C45.6665 111.833 47.8786 109.682 49.3635 107.045C50.8786 104.409 51.6362 101.636 51.6362 98.7273V88.9091C51.1816 89.4545 50.1816 89.9545 48.6362 90.4091C47.121 90.8333 45.3635 91.2121 43.3635 91.5455C41.3938 91.8485 39.4695 92.1212 37.5907 92.3636C35.7422 92.5758 34.2422 92.7576 33.0907 92.9091C30.3028 93.2727 27.6968 93.8636 25.2725 94.6818C22.8786 95.4697 20.9392 96.6667 19.4544 98.2727C17.9998 99.8485 17.2725 102 17.2725 104.727C17.2725 108.455 18.6513 111.273 21.4089 113.182C24.1968 115.061 27.7271 116 31.9998 116Z" fill="black"/>
<path d="M79.66 124.024C82.6352 124.02 86.0988 122.257 87.3961 120.085C88.6934 117.914 87.3332 116.156 84.358 116.16L79.66 124.024ZM74.349 116.172L68.9619 116.179L64.2639 124.043L69.651 124.036L74.349 116.172ZM84.358 116.16L74.349 116.172L69.651 124.036L79.66 124.024L84.358 116.16Z" fill="#D9111D"/>
</svg>
