<svg width="179" height="172" viewBox="0 0 179 172" fill="none" xmlns="http://www.w3.org/2000/svg">
<path d="M82.8887 126.596C79.6395 122.02 74.216 117.125 68.9634 114.028C63.6597 110.901 58.622 109.164 52.9024 108.493C51.7747 108.362 50.8398 108.239 50.8248 108.222C50.8102 108.222 50.8394 94.0975 50.8977 76.8742L50.994 45.56L52.0353 45.6825C58.4293 46.4433 65.5658 49.3414 70.9654 53.3807C75.6189 56.8612 80.4242 62.2359 83.4879 67.3859L84.2589 68.6819V98.4272C84.2589 114.787 84.2006 128.169 84.1306 128.166C84.0577 128.164 83.5029 127.458 82.8919 126.598L82.8887 126.596ZM88.1854 98.352V68.4825L89.6743 66.096C91.5753 63.0492 95.3991 58.4589 97.9276 56.1896C104.687 50.1214 112.018 46.6925 120.436 45.6606L121.503 45.5294V76.8873V108.246L120.265 108.386C108.544 109.694 98.3833 115.495 90.4357 125.413L88.1854 128.222V98.3529V98.352ZM95.447 126.192C100.047 121.015 106.137 116.901 112.254 114.836C115.455 113.756 119.618 113.003 122.381 113.003C123.83 113.003 124.634 112.627 125.087 111.734C125.428 111.06 125.432 110.771 125.433 85.3613L125.433 59.6666L126.074 59.8065C126.426 59.894 127.426 60.2263 128.295 60.5586L129.876 61.162V93.2292C129.876 110.866 129.817 125.296 129.745 125.296C129.672 125.296 128.616 125.025 127.396 124.693C122.574 123.39 118.603 122.942 113.388 123.111C107.062 123.321 102.146 124.379 96.3016 126.801L94.0804 127.722L95.4473 126.184L95.447 126.192ZM75.9688 126.69C73.5417 125.648 69.5335 124.419 66.8276 123.889C63.1485 123.172 60.6102 122.981 56.101 123.102C51.6206 123.216 48.9106 123.592 45.2136 124.598C44.1799 124.878 43.1227 125.167 42.8643 125.228L42.3948 125.351L42.3956 93.1977L42.3965 61.044L44.4033 60.3444C45.5071 59.9596 46.5063 59.601 46.6238 59.5573C46.7936 59.4699 46.8374 64.7081 46.8374 85.2231C46.8374 113.257 46.7863 111.694 47.7835 112.48C48.1305 112.752 48.8515 112.874 50.9104 113.023C59.0933 113.582 66.8577 116.878 73.1964 122.487C74.5633 123.696 77.8438 127.017 78.0318 127.382C78.163 127.636 78.0755 127.609 75.9693 126.7L75.9688 126.69Z" fill="black" fill-opacity="0.59"/>
<path d="M82.8887 126.596C79.6395 122.02 74.216 117.125 68.9634 114.028C63.6597 110.901 58.622 109.164 52.9024 108.493C51.7747 108.362 50.8398 108.239 50.8248 108.222C50.8102 108.222 50.8394 94.0975 50.8977 76.8742L50.994 45.56L52.0353 45.6825C58.4293 46.4433 65.5658 49.3414 70.9654 53.3807C75.6189 56.8612 80.4242 62.2359 83.4879 67.3859L84.2589 68.6819V98.4272C84.2589 114.787 84.2006 128.169 84.1306 128.166C84.0577 128.164 83.5029 127.458 82.8919 126.598L82.8887 126.596ZM88.1854 98.352V68.4825L89.6743 66.096C91.5753 63.0492 95.3991 58.4589 97.9276 56.1896C104.687 50.1214 112.018 46.6925 120.436 45.6606L121.503 45.5294V76.8873V108.246L120.265 108.386C108.544 109.694 98.3833 115.495 90.4357 125.413L88.1854 128.222V98.3529V98.352ZM95.447 126.192C100.047 121.015 106.137 116.901 112.254 114.836C115.455 113.756 119.618 113.003 122.381 113.003C123.83 113.003 124.634 112.627 125.087 111.734C125.428 111.06 125.432 110.771 125.433 85.3613L125.433 59.6666L126.074 59.8065C126.426 59.894 127.426 60.2263 128.295 60.5586L129.876 61.162V93.2292C129.876 110.866 129.817 125.296 129.745 125.296C129.672 125.296 128.616 125.025 127.396 124.693C122.574 123.39 118.603 122.942 113.388 123.111C107.062 123.321 102.146 124.379 96.3016 126.801L94.0804 127.722L95.4473 126.184L95.447 126.192ZM75.9688 126.69C73.5417 125.648 69.5335 124.419 66.8276 123.889C63.1485 123.172 60.6102 122.981 56.101 123.102C51.6206 123.216 48.9106 123.592 45.2136 124.598C44.1799 124.878 43.1227 125.167 42.8643 125.228L42.3948 125.351L42.3956 93.1977L42.3965 61.044L44.4033 60.3444C45.5071 59.9596 46.5063 59.601 46.6238 59.5573C46.7936 59.4699 46.8374 64.7081 46.8374 85.2231C46.8374 113.257 46.7863 111.694 47.7835 112.48C48.1305 112.752 48.8515 112.874 50.9104 113.023C59.0933 113.582 66.8577 116.878 73.1964 122.487C74.5633 123.696 77.8438 127.017 78.0318 127.382C78.163 127.636 78.0755 127.609 75.9693 126.7L75.9688 126.69Z" fill="black" fill-opacity="0.43"/>
<path d="M82.8887 126.596C79.6395 122.02 74.216 117.125 68.9634 114.028C63.6597 110.901 58.622 109.164 52.9024 108.493C51.7747 108.362 50.8398 108.239 50.8248 108.222C50.8102 108.222 50.8394 94.0975 50.8977 76.8742L50.994 45.56L52.0353 45.6825C58.4293 46.4433 65.5658 49.3414 70.9654 53.3807C75.6189 56.8612 80.4242 62.2359 83.4879 67.3859L84.2589 68.6819V98.4272C84.2589 114.787 84.2006 128.169 84.1306 128.166C84.0577 128.164 83.5029 127.458 82.8919 126.598L82.8887 126.596ZM88.1854 98.352V68.4825L89.6743 66.096C91.5753 63.0492 95.3991 58.4589 97.9276 56.1896C104.687 50.1214 112.018 46.6925 120.436 45.6606L121.503 45.5294V76.8873V108.246L120.265 108.386C108.544 109.694 98.3833 115.495 90.4357 125.413L88.1854 128.222V98.3529V98.352ZM95.447 126.192C100.047 121.015 106.137 116.901 112.254 114.836C115.455 113.756 119.618 113.003 122.381 113.003C123.83 113.003 124.634 112.627 125.087 111.734C125.428 111.06 125.432 110.771 125.433 85.3613L125.433 59.6666L126.074 59.8065C126.426 59.894 127.426 60.2263 128.295 60.5586L129.876 61.162V93.2292C129.876 110.866 129.817 125.296 129.745 125.296C129.672 125.296 128.616 125.025 127.396 124.693C122.574 123.39 118.603 122.942 113.388 123.111C107.062 123.321 102.146 124.379 96.3016 126.801L94.0804 127.722L95.4473 126.184L95.447 126.192ZM75.9688 126.69C73.5417 125.648 69.5335 124.419 66.8276 123.889C63.1485 123.172 60.6102 122.981 56.101 123.102C51.6206 123.216 48.9106 123.592 45.2136 124.598C44.1799 124.878 43.1227 125.167 42.8643 125.228L42.3948 125.351L42.3956 93.1977L42.3965 61.044L44.4033 60.3444C45.5071 59.9596 46.5063 59.601 46.6238 59.5573C46.7936 59.4699 46.8374 64.7081 46.8374 85.2231C46.8374 113.257 46.7863 111.694 47.7835 112.48C48.1305 112.752 48.8515 112.874 50.9104 113.023C59.0933 113.582 66.8577 116.878 73.1964 122.487C74.5633 123.696 77.8438 127.017 78.0318 127.382C78.163 127.636 78.0755 127.609 75.9693 126.7L75.9688 126.69Z" fill="black" fill-opacity="0.2"/>
<path d="M57.624 79.656V73.944H74.424V79.656H69.384V105H62.664V79.656H57.624ZM112.068 88.008C114.148 88.744 115.188 90.44 115.188 93.096V98.664C115.188 102.888 113.204 105 109.236 105H96.9V73.944H108.852C112.82 73.944 114.804 76.056 114.804 80.28V83.112C114.804 85.672 113.892 87.304 112.068 88.008ZM107.172 78.504H103.62V86.808H107.172C107.428 86.808 107.636 86.712 107.796 86.52C107.988 86.328 108.084 86.104 108.084 85.848V79.464C108.084 79.208 107.988 78.984 107.796 78.792C107.636 78.6 107.428 78.504 107.172 78.504ZM108.468 99.432V92.472C108.468 92.216 108.372 91.992 108.18 91.8C108.02 91.608 107.812 91.512 107.556 91.512H103.62V100.392H107.556C107.812 100.392 108.02 100.296 108.18 100.104C108.372 99.912 108.468 99.688 108.468 99.432Z" fill="#E0E40E"/>
</svg>
